# xmcd
#
# Track frame offsets: 
#        150
#        20751
#        46502
#        64975
#        80074
#        103652
#        120000
#        137782
#        154863
#
# Disc length: 2481 seconds
#
# Revision: 8
# Processed by: cddbd v1.5.2PL0 Copyright (c) Steve Scherf et al.
# Submitted via: ExactAudioCopyFreeDBPlugin 1.0
#
DISCID=6f09af09
DTITLE=Dio - The Last In Line {2012,RM,Deluxe,Universal UMC,2776098} C
DTITLE=D1
DYEAR=1984
DGENRE=Heavy Metal
TTITLE0=We Rock
TTITLE1=The Last In Line
TTITLE2=Breathless
TTITLE3=I Speed At Night
TTITLE4=One Night In The City
TTITLE5=Evil Eyes
TTITLE6=Mystery
TTITLE7=Eat Your Heart Out
TTITLE8=Egypt (The Chains Are On)
EXTD=Location:  - UPC: 602527760988 - Catalogue number: 2776098 - Label: 
EXTD=Universal Music Catalogue - ASIN: B006ZVCQNM - Release Date: 2012 0
EXTD=3 12 - Discogs: a215981 - MUSICBRAINZ_ALBUMID:  - AMG: p4097,r131769
EXTD=,r2402816 - YEAR: 1984
EXTT0=
EXTT1=
EXTT2=
EXTT3=
EXTT4=
EXTT5=
EXTT6=
EXTT7=
EXTT8=
PLAYORDER=
